<?xml version="1.0" encoding="utf-8"?>
<!-- Generator: Adobe Illustrator 16.0.0, SVG Export Plug-In . SVG Version: 6.00 Build 0)  -->
<!DOCTYPE svg PUBLIC "-//W3C//DTD SVG 1.1//EN" "http://www.w3.org/Graphics/SVG/1.1/DTD/svg11.dtd">
<svg version="1.1" id="Layer_1" xmlns="http://www.w3.org/2000/svg" xmlns:xlink="http://www.w3.org/1999/xlink" x="0px" y="0px"
	 width="1390.848px" height="1320.528px" viewBox="0 0 1390.848 1320.528" enable-background="new 0 0 1390.848 1320.528"
	 xml:space="preserve">
<path fill="#913A0D" d="M370.241,654.907h-98.061l-16.781-112.19h-119.25l-16.783,112.19H30.148l98.933-618.346h142.228
	L370.241,654.907z M148.511,458.802h93.637l-46.816-312.706L148.511,458.802z"/>
<path fill="#913A0D" d="M512.423,311.286h125.432v88.334H512.423v255.288h-97.172V36.562h257.06v88.336H512.423V311.286z"/>
<path fill="#913A0D" d="M922.265,654.907c-5.299-15.9-8.83-25.619-8.83-75.968v-97.172c0-57.413-19.433-78.619-63.603-78.619h-33.57
	v251.759h-97.168V36.562h146.636c100.702,0,143.991,46.818,143.991,142.215v48.587c0,63.602-20.32,105.12-63.602,125.439
	c48.59,20.312,64.488,67.13,64.488,131.618v95.396c0,30.039,0.875,52.123,10.6,75.089H922.265z M816.262,124.897V314.82h37.991
	c36.218,0,58.294-15.907,58.294-65.37v-60.949c0-44.173-15.01-63.604-49.463-63.604H816.262z"/>
<g>
	<path fill="#DA691A" d="M218.496,801.055v52.579c0,64.701-31.199,99.945-94.755,99.945H93.704v151.947H30.148V701.106h93.593
		C187.297,701.106,218.496,736.344,218.496,801.055z M93.704,758.881v136.926h30.037c20.22,0,31.202-9.248,31.202-38.131v-60.664
		c0-28.888-10.982-38.131-31.202-38.131H93.704z"/>
	<path fill="#DA691A" d="M306.292,971.488l-80.307-270.382h66.437l48.536,184.298l48.53-184.298h60.663l-80.307,270.382v134.037
		h-63.553V971.488z"/>
	<path fill="#DA691A" d="M457.061,701.106h196.44v57.774h-66.445v346.645h-63.558V758.881h-66.438V701.106z"/>
	<path fill="#DA691A" d="M744.754,1105.525h-63.56V701.106h63.56V874.43h72.217V701.106h64.709v404.419h-64.709V932.2h-72.217
		V1105.525z"/>
	<path fill="#DA691A" d="M922.674,798.169c0-64.71,34.082-101.685,96.474-101.685c62.403,0,96.485,36.975,96.485,101.685v210.295
		c0,64.709-34.082,101.685-96.485,101.685c-62.392,0-96.474-36.976-96.474-101.685V798.169z M986.223,1012.51
		c0,28.885,12.709,39.863,32.925,39.863c20.228,0,32.937-10.978,32.937-39.863V794.121c0-28.886-12.709-39.865-32.937-39.865
		c-20.216,0-32.925,10.979-32.925,39.865V1012.51z"/>
	<path fill="#DA691A" d="M1213.249,812.609v292.916h-57.188V701.106h79.723l65.281,242.072V701.106h56.623v404.419h-65.284
		L1213.249,812.609z"/>
</g>
<linearGradient id="SVGID_2_" gradientUnits="userSpaceOnUse" x1="1192.7246" y1="329.8525" x2="1396.3389" y2="567.3691">
	<stop  offset="0" style="stop-color:#913A0D"/>
	<stop  offset="1" style="stop-color:#DA691A"/>
</linearGradient>
<path fill="url(#SVGID_2_)" d="M1359.237,83.804c-4.4-22.619-25.114-39.129-49.222-43.148c-4.383-0.728-8.8-1.352-13.237-1.88
	c-13.023-1.557-26.213-2.271-38.992-2.21c-17.132,0.08-33.502,1.542-47.902,4.088c-42.415,7.496-50.121,23.181-50.121,52.107v38.206
	h4.401h88.371h7.47v12.733h-2.933h-97.31h-0.135h-37.483c-29.139,0-54.642,17.509-62.62,50.819c-0.737,3.058-1.397,5.999-2.022,8.89
	l0.041,294.833v114.413c4.507,22.483,25.165,38.878,49.187,42.882c4.372,0.729,8.791,1.353,13.233,1.882
	c13.019,1.557,26.212,2.27,38.995,2.21c17.132-0.081,33.499-1.544,47.899-4.089c42.419-7.495,50.116-23.18,50.116-52.106v-38.205
	h-4.396h-88.372h-7.471v-12.734h2.936h97.304h0.14h37.486c29.131,0,54.635-17.509,62.614-50.82c0.736-3.059,1.398-5.999,2.023-8.89
	V83.804z M1203.576,105.497c-10.391,0-18.811-8.518-18.811-19.046c0.004-10.565,8.42-19.161,18.811-19.161
	c10.357,0,18.811,8.595,18.811,19.161C1222.387,96.982,1213.934,105.497,1203.576,105.497z M1213.163,590.696
	c10.392,0,18.812,8.518,18.812,19.046c-0.004,10.565-8.42,19.159-18.812,19.159c-10.357,0-18.811-8.593-18.811-19.159
	C1194.353,599.214,1202.806,590.696,1213.163,590.696z M1259.873,426.991c-11.172,17.699-30.938,30.05-53.016,30.05h-49.95V346.305
	h-0.045v-77.102c11.184-17.699,30.942-30.05,53.021-30.05h49.953v110.733h0.036V426.991z"/>
</svg>
