<svg xmlns="http://www.w3.org/2000/svg" width="1390.848" height="1320.528" viewBox="0 0 1390.848 1320.528"><path fill="#913A0D" d="M370.241 654.907H272.18l-16.781-112.19h-119.25l-16.783 112.19H30.148l98.933-618.346h142.228l98.932 618.346zm-221.73-196.105h93.637l-46.816-312.706-46.821 312.706zm363.912-147.516h125.432v88.334H512.423v255.288h-97.172V36.562h257.06v88.336H512.423v186.388zm409.842 343.621c-5.299-15.9-8.83-25.619-8.83-75.968v-97.172c0-57.413-19.433-78.619-63.603-78.619h-33.57v251.759h-97.168V36.562H865.73c100.702 0 143.991 46.818 143.991 142.215v48.587c0 63.602-20.32 105.12-63.602 125.439 48.59 20.312 64.488 67.13 64.488 131.618v95.396c0 30.039.875 52.123 10.6 75.089h-98.942zm-106.003-530.01V314.82h37.991c36.218 0 58.294-15.907 58.294-65.37v-60.949c0-44.173-15.01-63.604-49.463-63.604h-46.822z"/><path d="M218.496 801.055v52.579c0 64.701-31.199 99.945-94.755 99.945H93.704v151.947H30.148v-404.42h93.593c63.556 0 94.755 35.238 94.755 99.949zM93.704 758.881v136.926h30.037c20.22 0 31.202-9.248 31.202-38.131v-60.664c0-28.888-10.982-38.131-31.202-38.131H93.704zm212.588 212.607l-80.307-270.382h66.437l48.536 184.298 48.53-184.298h60.663l-80.307 270.382v134.037h-63.553V971.488zm150.769-270.382h196.44v57.774h-66.445v346.645h-63.558V758.881H457.06v-57.775zm287.693 404.419h-63.56V701.106h63.56V874.43h72.217V701.106h64.709v404.419h-64.709V932.2h-72.217v173.325zm177.92-307.356c0-64.71 34.082-101.685 96.474-101.685 62.403 0 96.485 36.975 96.485 101.685v210.295c0 64.709-34.082 101.685-96.485 101.685-62.392 0-96.474-36.976-96.474-101.685V798.169zm63.549 214.341c0 28.885 12.709 39.863 32.925 39.863 20.228 0 32.937-10.978 32.937-39.863V794.121c0-28.886-12.709-39.865-32.937-39.865-20.216 0-32.925 10.979-32.925 39.865v218.389zm227.026-199.901v292.916h-57.188V701.106h79.723l65.281 242.072V701.106h56.623v404.419h-65.284l-79.155-292.916z" fill="#DA691A"/><linearGradient id="a" gradientUnits="userSpaceOnUse" x1="1192.725" y1="329.853" x2="1396.339" y2="567.369"><stop offset="0" stop-color="#913a0d"/><stop offset="1" stop-color="#da691a"/></linearGradient><path fill="url(#a)" d="M1359.237 83.804c-4.4-22.619-25.114-39.129-49.222-43.148-4.383-.728-8.8-1.352-13.237-1.88-13.023-1.557-26.213-2.271-38.992-2.21-17.132.08-33.502 1.542-47.902 4.088-42.415 7.496-50.121 23.181-50.121 52.107v38.206h100.242V143.7h-137.861c-29.139 0-54.642 17.509-62.62 50.819a383.816 383.816 0 0 0-2.022 8.89l.041 294.833v114.413c4.507 22.483 25.165 38.878 49.187 42.882a286.53 286.53 0 0 0 13.233 1.882c13.019 1.557 26.212 2.27 38.995 2.21 17.132-.081 33.499-1.544 47.899-4.089 42.419-7.495 50.116-23.18 50.116-52.106v-38.205h-100.239v-12.734H1294.6c29.131 0 54.635-17.509 62.614-50.82a390.417 390.417 0 0 0 2.023-8.89V83.804zm-155.661 21.693c-10.391 0-18.811-8.518-18.811-19.046.004-10.565 8.42-19.161 18.811-19.161 10.357 0 18.811 8.595 18.811 19.161 0 10.531-8.453 19.046-18.811 19.046zm9.587 485.199c10.392 0 18.812 8.518 18.812 19.046-.004 10.565-8.42 19.159-18.812 19.159-10.357 0-18.811-8.593-18.811-19.159.001-10.528 8.454-19.046 18.811-19.046zm46.71-163.705c-11.172 17.699-30.938 30.05-53.016 30.05h-49.95V346.305h-.045v-77.102c11.184-17.699 30.942-30.05 53.021-30.05h49.953v110.733h.036v77.105z"/></svg>